<svg width="16" height="16" viewBox="0 0 16 16" fill="none" xmlns="http://www.w3.org/2000/svg">
  <path fill-rule="evenodd" clip-rule="evenodd" d="M 8 3 L 3 8 L 3 8.707 L 8 13.707 L 8.707 13 L 4.561 8.853 L 14.646 8.853 L 14.646 7.825 L 4.561 7.853 L 8.707 3.707 L 8 3 Z" fill="#c5c5c5"/>
  <path fill-rule="evenodd" clip-rule="evenodd" d="M 2.512 0.064 L 3.297 0.064 L 3.297 2.4 L 5.357 1.23 L 5.748 1.895 L 3.684 3.063 L 5.748 4.23 L 5.357 4.896 L 3.297 3.73 L 3.297 6.064 L 2.512 6.064 L 2.512 3.73 L 0.447 4.896 L 0.058 4.23 L 2.123 3.063 L 0.058 1.895 L 0.447 1.23 L 2.512 2.4 L 2.512 0.064 Z" fill="#c5c5c5"/>
</svg>